# xmcd CD database file
#
# Track frame offsets:
#	150
#	15368
#	27133
#	42441
#	56857
#	71716
#	83954
#
# Disc length: 1340 seconds
#
# Revision: 0
# Processed by: cddbd v1.5.2PL0 Copyright (c) Steve Scherf et al.
# Submitted via: CDex 1.60beta1-cs1
#
DISCID=56053a07
DTITLE=Ruckus - Ruckus
DYEAR=2005
DGENRE=Country
TTITLE0=Dance Cowboy Dance
TTITLE1=Life is Good
TTITLE2=Jolene
TTITLE3=Pick Yourself Up
TTITLE4=Country as a Boy
TTITLE5=Wrong Night
TTITLE6=Drivin My Life Away
EXTD=YEAR: 2005
EXTT0=
EXTT1=
EXTT2=
EXTT3=
EXTT4=
EXTT5=
EXTT6=
PLAYORDER=
